<svg width="512" height="512" viewBox="0 0 512 512" fill="none" xmlns="http://www.w3.org/2000/svg">
  <defs>
    <linearGradient id="bgGradient" x1="0%" y1="0%" x2="100%" y2="100%">
      <stop offset="0%" style="stop-color:#4f46e5;stop-opacity:1" />
      <stop offset="100%" style="stop-color:#6366f1;stop-opacity:1" />
    </linearGradient>
    <linearGradient id="accentGradient" x1="0%" y1="0%" x2="100%" y2="100%">
      <stop offset="0%" style="stop-color:#10b981;stop-opacity:1" />
      <stop offset="100%" style="stop-color:#059669;stop-opacity:1" />
    </linearGradient>
    <filter id="shadow" x="-50%" y="-50%" width="200%" height="200%">
      <feDropShadow dx="0" dy="4" stdDeviation="8" flood-color="rgba(0,0,0,0.1)"/>
    </filter>
  </defs>
  
  <!-- Background Circle -->
  <circle cx="256" cy="256" r="240" fill="url(#bgGradient)" filter="url(#shadow)"/>
  
  <!-- Main Document Shape -->
  <rect x="160" y="120" width="192" height="272" rx="16" fill="white" opacity="0.95"/>
  
  <!-- Document Lines -->
  <rect x="180" y="160" width="152" height="8" rx="4" fill="#4f46e5" opacity="0.3"/>
  <rect x="180" y="180" width="120" height="8" rx="4" fill="#4f46e5" opacity="0.3"/>
  <rect x="180" y="200" width="136" height="8" rx="4" fill="#4f46e5" opacity="0.3"/>
  
  <rect x="180" y="240" width="152" height="8" rx="4" fill="#4f46e5" opacity="0.3"/>
  <rect x="180" y="260" width="104" height="8" rx="4" fill="#4f46e5" opacity="0.3"/>
  
  <rect x="180" y="300" width="152" height="8" rx="4" fill="#4f46e5" opacity="0.3"/>
  <rect x="180" y="320" width="128" height="8" rx="4" fill="#4f46e5" opacity="0.3"/>
  <rect x="180" y="340" width="96" height="8" rx="4" fill="#4f46e5" opacity="0.3"/>
  
  <!-- Checkboxes -->
  <rect x="180" y="220" width="16" height="16" rx="3" fill="url(#accentGradient)"/>
  <path d="M185 228 L188 231 L193 224" stroke="white" stroke-width="2" stroke-linecap="round" stroke-linejoin="round"/>
  
  <rect x="180" y="280" width="16" height="16" rx="3" fill="url(#accentGradient)"/>
  <path d="M185 288 L188 291 L193 284" stroke="white" stroke-width="2" stroke-linecap="round" stroke-linejoin="round"/>
  
  <!-- Notification Dot -->
  <circle cx="320" cy="140" r="24" fill="url(#accentGradient)"/>
  <circle cx="320" cy="140" r="16" fill="white"/>
  <text x="320" y="148" text-anchor="middle" font-family="Arial" font-size="18" font-weight="bold" fill="#10b981">!</text>
  
  <!-- Calendar Icon (Top Right) -->
  <rect x="380" y="180" width="48" height="48" rx="8" fill="white" opacity="0.9"/>
  <rect x="380" y="180" width="48" height="16" rx="8" fill="#4f46e5"/>
  <rect x="388" y="172" width="4" height="12" rx="2" fill="#4f46e5"/>
  <rect x="416" y="172" width="4" height="12" rx="2" fill="#4f46e5"/>
  
  <!-- Calendar Grid -->
  <circle cx="392" cy="208" r="2" fill="#4f46e5" opacity="0.5"/>
  <circle cx="404" cy="208" r="2" fill="#4f46e5" opacity="0.5"/>
  <circle cx="416" cy="208" r="2" fill="#4f46e5" opacity="0.5"/>
  <circle cx="392" cy="216" r="2" fill="#10b981"/>
  <circle cx="404" cy="216" r="2" fill="#4f46e5" opacity="0.5"/>
  <circle cx="416" cy="216" r="2" fill="#4f46e5" opacity="0.5"/>
  
  <!-- Book Icon (Bottom Left) -->
  <rect x="84" y="340" width="48" height="36" rx="4" fill="white" opacity="0.9"/>
  <rect x="88" y="344" width="40" height="4" rx="2" fill="#4f46e5"/>
  <rect x="88" y="352" width="32" height="3" rx="1.5" fill="#4f46e5" opacity="0.6"/>
  <rect x="88" y="358" width="36" height="3" rx="1.5" fill="#4f46e5" opacity="0.6"/>
  <rect x="88" y="364" width="28" height="3" rx="1.5" fill="#4f46e5" opacity="0.6"/>
  
  <!-- Geometric Accent -->
  <circle cx="80" cy="200" r="20" fill="url(#accentGradient)" opacity="0.8"/>
  <path d="M72 200 L80 192 L88 200 L80 208 Z" fill="white"/>
  
  <circle cx="432" cy="320" r="16" fill="#f59e0b" opacity="0.8"/>
  <polygon points="432,312 428,320 432,328 436,320" fill="white"/>
</svg>